<?xml version="1.0" encoding="utf-8"?>
<!-- Generator: Adobe Illustrator 19.0.0, SVG Export Plug-In . SVG Version: 6.00 Build 0)  -->
<svg version="1.1" xmlns="http://www.w3.org/2000/svg" xmlns:xlink="http://www.w3.org/1999/xlink" x="0px" y="0px"
	 viewBox="0 0 250 249.9" style="enable-background:new 0 0 250 249.9;" xml:space="preserve">
<style type="text/css">
	.st0{fill:#42BA36;}
	.st1{fill:#BDD220;}
	.st2{fill:#E6F81A;}
</style>
<g id="Layer_1">
	<rect id="XMLID_21_" x="0" y="0" class="st0" width="250" height="250"/>
</g>
<g id="Layer_2">
	<path id="XMLID_9_" class="st1" d="M136.7,166.3c1.7-3.5,5-11,5.2-17.2c0.6-18.7,5.7-22.7,11.6-34.3c0,0,1.4-12.1,3-14.8
		c1.5-2.4,2.8-5.9,3.7-7.8c4-8.3,4.6-23.6,5.1-33c-23.3-7.9-20.4-29.7-8.2-34.5c10.9-4.3,22.5-2,31.9-1.7c4,0.1,10.6,4.2,14,4.5
		c4.1,0.4,10.2-3,13.5-2.6c0,0,6.5-0.5,9.1,3c5.1,6.7,3.1,14.4-0.3,22.8C221,61.4,201,59.3,201,59.3s-1.4,26.1-4.8,33.3
		c-7.1,15.1-5.6,15.9-9.3,26.3c-1,2.8-3.4,5.6-3.2,8.3c0.7,9.8-0.9,12.4-3.8,20.7c-0.9,2.6-4.6,9.8-5.8,12.3
		c-1.8,4-1.2,9.3-3.5,13.1c-3.4,5.6-5.1,11.1-8.9,16.6c-7.6,11.1-14.2,23-21.9,35.6c-11.8,5.8-20.3-1.9-26.6-11.2
		c-5.8-8.5-11.3-18.2-13.5-28.1c-4.8-21.2-15.6-38.9-27.6-56.4c-3.3-4.9-5.4-10.6-7.6-16.1c-2.3-5.5-3-12.3-6.4-16.5
		c-6.4-7.8-11.2-20.9-13-38.4c-18.4,4.2-24.7,2.4-30.5-5.1C13,49,8.1,40.8,13.3,31.1c4-7.4,14.5-12.8,22.5-8.4c0,0,6.8,1,13.6-1.4
		c5.2-1.8,24.9-4.3,31.3-3c12.5,2.5,13.8,21.8,8.5,28C88,47.7,77.9,48.5,78,51c0.1,5.4,4.5,14.3,7.8,23.5c3.4,9.4,5.9,20.5,10,30.5
		c1.7,4.1,2.8,2.5,8.3,10.2c6,8.4,3.4,12.2,8.7,18.5c3.3,3.9,8.4,6.4,12.8,9C133.7,147.8,134.5,157.7,136.7,166.3z"/>
	<path id="XMLID_10_" class="st2" d="M142.7,160.8c1.7-3.5,5-11,5.2-17.2c0.6-18.7,5.7-22.7,11.6-34.3c0,0,1.4-12.1,3-14.8
		c1.5-2.4,2.8-5.9,3.7-7.8c4-8.3,4.6-23.6,5.1-33c-23.3-7.9-20.4-29.7-8.2-34.5c10.9-4.3,22.5-2,31.9-1.7c4,0.1,10.6,4.2,14,4.5
		c4.1,0.4,10.2-3,13.5-2.6c0,0,6.5-0.5,9.1,3c5.1,6.7,3.1,14.4-0.3,22.8C227,55.9,207,53.8,207,53.8s-1.4,26.1-4.8,33.3
		c-7.1,15.1-5.6,15.9-9.3,26.3c-1,2.8-3.4,5.6-3.2,8.3c0.7,9.8-0.9,12.4-3.8,20.7c-0.9,2.6-4.6,9.8-5.8,12.3
		c-1.8,4-1.2,9.3-3.5,13.1c-3.4,5.6-5.1,11.1-8.9,16.6c-7.6,11.1-14.2,23-21.9,35.6c-11.8,5.8-20.3-1.9-26.6-11.2
		c-5.8-8.5-11.3-18.2-13.5-28.1c-4.8-21.2-15.6-38.9-27.6-56.4c-3.3-4.9-5.4-10.6-7.6-16.1c-2.3-5.5-3-12.3-6.4-16.5
		c-6.4-7.8-11.2-20.9-13-38.4c-18.4,4.2-24.7,2.4-30.5-5.1c-1.7-4.4-6.6-12.6-1.4-22.3c4-7.4,14.5-12.8,22.5-8.4c0,0,6.8,1,13.6-1.4
		c5.2-1.8,24.9-4.3,31.3-3c12.5,2.5,13.8,21.8,8.5,28C94,42.2,83.9,43,84,45.5c0.1,5.4,4.5,14.3,7.8,23.5c3.4,9.4,5.9,20.5,10,30.5
		c1.7,4.1,2.8,2.5,8.3,10.2c6,8.4,3.4,12.2,8.7,18.5c3.3,3.9,8.4,6.4,12.8,9C139.7,142.3,140.5,152.2,142.7,160.8z"/>
</g>
</svg>
