/* XPM */
static char * gconjugue_xpm[] = {
"48 48 25 1",
" 	c None",
".	c #3BB13B",
"+	c #62C427",
"@	c #76D827",
"#	c #4EC43B",
"$	c #EBFF14",
"%	c #89D827",
"&	c #9DD827",
"*	c #B1D827",
"=	c #C4EB27",
"-	c #D8EB14",
";	c #76C427",
">	c #D8D814",
",	c #4EB13B",
"'	c #89C427",
")	c #C4D827",
"!	c #B1EB27",
"~	c #EBEB14",
"{	c #9DC427",
"]	c #62C43B",
"^	c #4EC427",
"/	c #D8EB27",
"(	c #B1C427",
"_	c #3BC43B",
":	c #4EB127",
"................................................",
"................................................",
"...+@@...@@@@@#.................................",
"..+$$$$$$$$$$$$$$%............#&*$$$$$=&&*$$-#..",
"..&$$$$$$$$$$$$$$$@...........&$$$$$$$$$$$$$$@..",
".;>$$$$$$$$$$$$$$$=..........,=$$$$$$$$$$$$$$@..",
".'>$$$$$$$$$$$$$$$=..........;)$$$$$$$$$$$$$-#..",
".'>$$$$$$$$$$$$$$$&..........;)$$$$$$$$$$$$$!...",
".+*-----~$$$$$$-)&...........+*$$$$$$$$$$$$-+...",
".#{*)))))$$$$$$$*]...........+{)--$$$$$$$-*;....",
"..+;'';{)-$$$$$$%............#'**-$$$$$$$)'#....",
"...##,.#{)-$$$$$-#............,#;-$$$$$$$+......",
"........+*-$$$$$$%..............'-$$$$$$-.......",
"........^*)$$$$$$!..............'-$$$$$$/.......",
"........^')-$$$$$$#.............{-$$$$$$@.......",
"........#;(-$$$$$$*.............{-$$$$$$#.......",
".........^{)$$$$$$=.............=$$$$$$=........",
"........._;*-$$$$$$+...........#$$$$$$$+........",
"..........,'-$$$$$$&...........*$$$$$$$.........",
"...........+*$$$$$$-..........+~$$$$$$!.........",
"...........#'-$$$$$$+.........'$$$$$$$%.........",
"..........._;*$$$$$$-#.......,)$$$$$$-#.........",
"............^'-$$$$$$&.......;$$$$$$$&..........",
"............#;(-$$$$$-#......!$$$$$$$#..........",
".............+{)$$$$$$=#....#-$$$$$$$#..........",
"............._;*-$$$$$$=#...{-$$$$$$$#..........",
"..............#')-$$$$$$=^..{>$$$$$$$#..........",
"...............+{)$$$$$$$=#.&-$$$$$$!...........",
"................;*-$$$$$$$%.'~$$$$$$]...........",
"................#*)$$$$$$$-.=$$$$$$=............",
".................;*~$$$$$$$@$$$$$$$+............",
".................#{=$$$$$$$-$$$$$$$+............",
"..................;*~$$$$$$$$$$$$$$]............",
"..................+{-$$$$$$$$$$$$$+.............",
"..................,')-$$$$$$$$$$$=,.............",
"...................^{)$$$$$$$$$$~#..............",
"...................,;)$$$$$$$$$~'...............",
"....................^{-$$$$$$$$&................",
"....................^'*-$$$$$$*.................",
".....................+{*-$$$$$@.................",
".....................^;*)~$$$=#.................",
"......................^{)-$$~+..................",
".......................+{*))'...................",
".......................:+'''#...................",
"........................,^^#....................",
"................................................",
"................................................",
"................................................"};
